# xmcd CD database file
#
# Track frame offsets:
#	150
#	25334
#	47258
#	90727
#	100179
#	128051
#	143839
#	156039
#	176842
#	204075
#	229145
#	254094
#	283702
#
# Disc length: 4030 seconds
#
# Revision: 2
# Processed by: cddbd v1.5.1PL0 Copyright (c) Steve Scherf et al.
# Submitted via: CDex 1.51
#
DISCID=ae0fbc0d
DTITLE=Hector Lavoe - Los Mejores Exitos De La Salsa Clasica - CD3
DYEAR=1900
DGENRE=Salsa
TTITLE0=Hache Y Machete
TTITLE1=Sonero Mayor
TTITLE2=Bandolero
TTITLE3=Mucho Amor
TTITLE4=Noche De Farra\Comedia
TTITLE5=Comedia
TTITLE6=Consejo de Oro
TTITLE7=El Sabio
TTITLE8=Felices Horas
TTITLE9=Juana Pena
TTITLE10=No Me Llores mas
TTITLE11=Rompe Saraguey
TTITLE12=Sombra Nadas Mas
EXTD=
EXTT0=
EXTT1=
EXTT2=
EXTT3=
EXTT4=
EXTT5=
EXTT6=
EXTT7=
EXTT8=
EXTT9=
EXTT10=
EXTT11=
EXTT12=
PLAYORDER=
